<svg xmlns="http://www.w3.org/2000/svg" width="256" height="256" viewBox="0 0 100 100"><rect width="100" height="100" rx="20" fill="#373646"></rect><path fill="#fff" d="M45.41 81.50L36.59 81.50L22.55 52.88L19.31 58.28L19.31 81.50L11.48 81.50L11.48 18.50L19.31 18.50L19.31 45.68L35.96 18.50L44.51 18.50L27.41 46.04L45.41 81.50ZM88.52 66.20Q88.52 73.85 84.34 77.67Q80.15 81.50 72.32 81.50L72.32 81.50L69.26 81.50Q61.43 81.50 57.25 77.67Q53.06 73.85 53.06 66.20L53.06 66.20L53.06 33.80Q53.06 26.15 57.25 22.33Q61.43 18.50 69.26 18.50L69.26 18.50L72.32 18.50Q80.15 18.50 84.34 22.33Q88.52 26.15 88.52 33.80L88.52 33.80L88.52 66.20ZM80.69 32.09Q80.69 29.30 78.62 27.32Q76.55 25.34 73.22 25.34L73.22 25.34L68.36 25.34Q65.03 25.34 62.96 27.32Q60.89 29.30 60.89 32.09L60.89 32.09L60.89 67.91Q60.89 70.70 62.96 72.68Q65.03 74.66 68.36 74.66L68.36 74.66L73.22 74.66Q76.55 74.66 78.62 72.68Q80.69 70.70 80.69 67.91L80.69 67.91L80.69 32.09Z"></path></svg>